<svg width="69" height="76" viewBox="0 0 69 76" fill="none" xmlns="http://www.w3.org/2000/svg">
  <path fill="#2C5282" d="M69 75.9h-3v-3.3h3zM69 69.3h-3V66h3z"/>
  <path fill="#2C5282" d="M69 69.3h-3V66h3zM69 62.7h-3v-3.3h3zM69 56.1h-3v-3.3h3zM69 42.9h-3v-3.3h3zM69 49.5h-3v-3.3h3zM63 75.9h-3v-3.3h3zM63 69.3h-3V66h3z"/>
  <path fill="#2C5282" d="M63 69.3h-3V66h3zM63 62.7h-3v-3.3h3zM63 56.1h-3v-3.3h3zM63 42.9h-3v-3.3h3zM63 49.5h-3v-3.3h3zM57 75.9h-3v-3.3h3zM57 69.3h-3V66h3z"/>
  <path fill="#2C5282" d="M57 69.3h-3V66h3zM57 62.7h-3v-3.3h3zM57 56.1h-3v-3.3h3zM57 42.9h-3v-3.3h3zM57 49.5h-3v-3.3h3zM51 75.9h-3v-3.3h3zM51 69.3h-3V66h3z"/>
  <path fill="#2C5282" d="M51 69.3h-3V66h3zM51 62.7h-3v-3.3h3zM51 56.1h-3v-3.3h3zM51 42.9h-3v-3.3h3zM51 49.5h-3v-3.3h3zM45 75.9h-3v-3.3h3zM45 69.3h-3V66h3z"/>
  <path fill="#2C5282" d="M45 69.3h-3V66h3zM45 62.7h-3v-3.3h3zM45 56.1h-3v-3.3h3zM45 42.9h-3v-3.3h3zM45 49.5h-3v-3.3h3zM39 75.9h-3v-3.3h3zM39 69.3h-3V66h3z"/>
  <path fill="#2C5282" d="M39 69.3h-3V66h3zM39 62.7h-3v-3.3h3zM39 56.1h-3v-3.3h3zM39 42.9h-3v-3.3h3zM39 49.5h-3v-3.3h3zM33 75.9h-3v-3.3h3zM33 69.3h-3V66h3z"/>
  <path fill="#2C5282" d="M33 69.3h-3V66h3zM33 62.7h-3v-3.3h3zM33 56.1h-3v-3.3h3zM33 42.9h-3v-3.3h3zM33 49.5h-3v-3.3h3zM27 75.9h-3v-3.3h3zM27 69.3h-3V66h3z"/>
  <path fill="#2C5282" d="M27 69.3h-3V66h3zM27 62.7h-3v-3.3h3zM27 56.1h-3v-3.3h3zM27 49.5h-3v-3.3h3zM21 75.9h-3v-3.3h3zM21 69.3h-3V66h3z"/>
  <path fill="#2C5282" d="M21 69.3h-3V66h3zM21 62.7h-3v-3.3h3zM21 56.1h-3v-3.3h3zM15 75.9h-3v-3.3h3zM15 69.3h-3V66h3z"/>
  <path fill="#2C5282" d="M15 69.3h-3V66h3zM15 62.7h-3v-3.3h3zM9 75.9H6v-3.3h3zM9 69.3H6V66h3z"/>
  <path fill="#2C5282" d="M9 69.3H6V66h3zM3 75.9H0v-3.3h3zM69 36.3h-3V33h3zM69 29.7h-3v-3.3h3z"/>
  <path fill="#2C5282" d="M69 29.7h-3v-3.3h3zM69 23.1h-3v-3.3h3zM69 16.5h-3v-3.3h3zM69 3.3h-3V0h3zM69 9.9h-3V6.6h3zM63 36.3h-3V33h3zM63 29.7h-3v-3.3h3z"/>
  <path fill="#2C5282" d="M63 29.7h-3v-3.3h3zM63 23.1h-3v-3.3h3zM63 16.5h-3v-3.3h3zM63 9.9h-3V6.6h3zM57 36.3h-3V33h3zM57 29.7h-3v-3.3h3z"/>
  <path fill="#2C5282" d="M57 29.7h-3v-3.3h3zM57 23.1h-3v-3.3h3zM57 16.5h-3v-3.3h3zM51 36.3h-3V33h3zM51 29.7h-3v-3.3h3z"/>
  <path fill="#2C5282" d="M51 29.7h-3v-3.3h3zM51 23.1h-3v-3.3h3zM45 36.3h-3V33h3zM45 29.7h-3v-3.3h3z"/>
  <path fill="#2C5282" d="M45 29.7h-3v-3.3h3zM39 36.3h-3V33h3z"/>
</svg>
