<svg xmlns="http://www.w3.org/2000/svg" width="414" height="483" fill="none"><path fill="#fff" d="M0 0h414v483H0z"/><path d="M316 335.055L382.858 316m0 8.378l-64.716 18.192m.858 2.485l63.685-18.15m.105 8.348l-61.648 17.318" stroke="#000"/><circle cx="189.75" cy="316.538" r="4.313" fill="#1a202c"/><path d="M207.862 32.775v6.9l147.488 13.8m0 9.487L204.412 47.437v50.888L344.137 110.4m0 7.762l-139.725-13.8-3.45 56.925 103.5 6.9m-7.762 8.625l-98.325-8.625-6.038 50.025 97.463 12.075m0 6.9l-98.325-11.212-13.8 100.912 206.137-27.6m0 11.213l-207 24.15v25.012m0 0l135.413-36.225 12.075 43.125-144.038 40.246m-3.45-47.146L31.05 403.65v44.85L138 418.617m-17.25-43.43l-12.938-33.637-76.762 30.187m0-8.625l75.037-28.462-11.212-32.775m6.9-1.725l12.075 31.05 53.475-19.838 22.425-143.175-68.138-.862m0-8.625h69.863l5.175-125.925M138 418.617l3.45 9.183m-3.45-9.183l42.262-11.81m0 0V414" stroke="#1a202c" stroke-width="2"/><path fill="#4299e1" d="M206.138 72.45h18v18h-18z"/><g fill="#1a202c"><circle cx="188.025" cy="56.063" r="4.313"/><path d="M140.9 52.7c-.27.07-.6.08-.8.08h-4.62c-.33 0-.9-.05-1.2-.08v1.4l1.2-.04h4.66c-.13.85-.5 2-1.17 2.82-.8 1-1.94 1.88-3.92 2.34l1.1 1.2c1.78-.57 3.1-1.56 4.02-2.76.83-1.1 1.27-2.66 1.5-3.64.05-.22.13-.5.22-.7l-.98-.63zm7.17 3.35c.04.2.07.47.07.7 0 1.26-.2 2.15-1.34 2.92a3.57 3.57 0 0 1-.81.43l1.06.85c2.34-1.28 2.34-3.04 2.4-4.9h-1.38zm4.07-1.72c-.16.05-.6.07-.8.07h-4.64c-.33 0-.73-.03-1.04-.08v1.3l1.04-.06h4.34c-.24.42-.87 1.13-1.44 1.52l1 .7c.7-.55 1.64-1.8 2-2.37.06-.1.2-.3.3-.4l-.74-.67zm5.7-2.17l-.47 1.18c1.4.18 4.25.82 5.4 1.25l.5-1.25c-1.26-.44-4.14-1.02-5.45-1.18zm-.46 2.7l-.46 1.2c1.5.24 4.05.82 5.2 1.26l.5-1.25c-1.26-.44-3.8-.98-5.23-1.22zm-.5 2.86l-.5 1.26c1.6.24 4.76.93 6.1 1.5l.55-1.25c-1.37-.52-4.45-1.24-6.16-1.5zm17.65-4.84c-.2.07-.55.1-.93.1h-5.55c-.34 0-.9-.05-1.15-.1v1.4l1.15-.07h5.3c-.47.82-1.4 1.98-2.54 2.88l-1.7-1.4-1.06.85c.6.43 1.62 1.33 2.2 1.92l1.9 2.16 1.17-.93c-.4-.47-.98-1.12-1.55-1.7 1.4-1.14 2.7-2.74 3.4-3.9.07-.13.2-.26.34-.42l-1-.82zM200.9 306.7c-.27.07-.6.08-.8.08h-4.62c-.33 0-.9-.05-1.2-.08v1.4l1.2-.04h4.66c-.13.85-.5 2-1.17 2.82-.8 1-1.94 1.88-3.92 2.34l1.1 1.2c1.78-.57 3.1-1.56 4.02-2.76.83-1.1 1.27-2.66 1.5-3.64.05-.22.13-.5.22-.7l-.98-.63zm7.17 3.35c.04.2.07.47.07.7 0 1.26-.2 2.15-1.34 2.92a3.57 3.57 0 0 1-.81.43l1.06.85c2.34-1.28 2.34-3.04 2.4-4.9h-1.38zm4.07-1.72c-.16.05-.6.07-.8.07h-4.64c-.33 0-.73-.03-1.04-.08v1.3l1.04-.06h4.34c-.24.42-.87 1.13-1.44 1.52l1 .7c.7-.55 1.64-1.8 2-2.37.06-.1.2-.3.3-.4l-.74-.67zm5.7-2.17l-.47 1.18c1.4.18 4.25.82 5.4 1.25l.5-1.25c-1.26-.44-4.14-1.02-5.45-1.18zm-.46 2.7l-.46 1.2c1.5.24 4.05.82 5.2 1.26l.5-1.25c-1.26-.44-3.8-.98-5.23-1.22zm-.5 2.86l-.5 1.26c1.6.24 4.76.93 6.1 1.5l.55-1.25c-1.37-.52-4.45-1.24-6.16-1.5zm17.65-4.84c-.2.07-.55.1-.93.1h-5.55c-.34 0-.9-.05-1.15-.1v1.4l1.15-.07h5.3c-.47.82-1.4 1.98-2.54 2.88l-1.7-1.4-1.06.85c.6.43 1.62 1.33 2.2 1.92l1.9 2.16 1.17-.93c-.4-.47-.98-1.12-1.55-1.7 1.4-1.14 2.7-2.74 3.4-3.9.07-.13.2-.26.34-.42l-1-.82zm5.686-226.264v-1.722h-5.502c.14-1.302.154-2.6.168-3.738h-1.82l-.14 3.738h-5.096v1.722h4.816c-.546 2.408-1.876 4.732-5.082 6.16.5.35.98.952 1.246 1.414 2.968-1.428 4.48-3.612 5.236-5.95 1.092 2.702 2.716 4.746 5.25 5.936.266-.476.812-1.218 1.232-1.568-2.618-1.064-4.312-3.262-5.236-5.992h4.928zm10.724-1.008h-3.164l.826-.308c-.14-.546-.504-1.344-.924-1.918h3.262c-.196.63-.532 1.442-.812 1.988l.812.238zm4.438-3.808h-11.872v12.418h1.624V77.382h2.492l-1.274.448a6.45 6.45 0 0 1 .798 1.778h-1.554v1.358h3v3.262h-1.106v-2.534h-1.4v4.732h1.4V85.6h3.738v.602h1.414v-4.508h-1.414v2.534H250.1v-3.262h3.206v-1.358H251.5l1.12-1.932-1.232-.294h2.352v9.016c0 .238-.084.308-.308.308-.224.014-.938.014-1.582-.028.224.42.462 1.12.532 1.554 1.092 0 1.82-.028 2.3-.294.518-.28.686-.7.686-1.526V75.8zm13.412 2.702v6.902h-3.178V75.52h-1.736v9.884h-3.038V78.53h-1.708v9.52h1.708v-.924h7.952v.882h1.736v-9.506H268.8zm14.938-1.848c-.28.098-.84.182-1.456.182h-4.928c-.42 0-1.274-.042-1.652-.098v1.988l1.652-.098h4.746c-.308.994-1.162 2.38-2.086 3.43-1.316 1.47-3.486 3.164-5.74 4.018l1.442 1.512c1.918-.9 3.78-2.366 5.264-3.934 1.316 1.274 2.618 2.702 3.528 3.962l1.596-1.386a39.36 39.36 0 0 0-3.906-4.004c.938-1.26 1.722-2.758 2.198-3.85.126-.28.378-.714.5-.868l-1.148-.854zm16.03.756a4.49 4.49 0 0 1-1.218.168h-2.814l.042-.07.854-1.428-2.044-.672a6.735 6.735 0 0 1-.63 1.47c-.7 1.204-1.918 3-4.368 4.508l1.568 1.162c1.372-.938 2.6-2.17 3.528-3.388h3.934c-.224 1.05-1.036 2.73-1.988 3.822-1.218 1.386-2.772 2.604-5.642 3.458l1.652 1.484c2.632-1.05 4.326-2.324 5.656-3.948 1.26-1.568 2.058-3.43 2.436-4.676.112-.35.308-.742.462-1.008l-1.428-.882zm5.53 5.306c.518-.042 1.456-.07 2.254-.07h7.518l1.638.07v-2.198l-1.638.084h-7.518c-.728 0-1.75-.042-2.254-.084v2.198zm16.38 4.9a8.11 8.11 0 0 0 2.492-4.018c.378-1.414.42-4.368.42-6.02a8.93 8.93 0 0 1 .098-1.26h-2.058c.084.336.126.714.126 1.274 0 1.694-.014 4.34-.406 5.544-.392 1.2-1.148 2.478-2.38 3.346l1.708 1.134zm5.936.042c.182-.14.322-.266.616-.42 1.568-.798 3.584-2.3 4.746-3.822l-1.078-1.54c-.938 1.358-2.324 2.464-3.458 2.954v-7.322c0-.63.084-1.176.098-1.218h-2.086c.014.042.112.574.112 1.204v8.162c0 .378-.056.77-.112 1.036l1.162.966zm-200 303.873l-.382-1.426-4.555 1.22c-.173-1.11-.447-2.178-.69-3.132l-1.506.404.713 3.126-4.22 1.13.382 1.426 3.987-1.068c.082 2.115-.503 4.334-2.84 6.227.483.18 1.023.57 1.345.895 2.14-1.84 2.908-3.985 3.016-6.088 1.503 1.995 3.3 3.327 5.663 3.75.115-.453.402-1.19.672-1.572-2.403-.3-4.293-1.744-5.664-3.8l4.08-1.093zm8.655-3.214l-2.62.702.615-.438a5.415 5.415 0 0 0-1.19-1.383l2.7-.724a11.94 11.94 0 0 1-.231 1.826l.725.017zm2.83-4.137l-9.83 2.633 2.755 10.282 1.345-.36-2.404-8.97 2.063-.553-.955.654a5.53 5.53 0 0 1 1.055 1.295l-1.287.344.302 1.125 2.492-.668.723 2.7-.915.245-.563-2.098-1.16.31 1.05 3.917 1.16-.3-.183-.684 3.095-.83.133.498 1.17-.314-1-3.732-1.17.314.562 2.098-.938.25-.724-2.7 2.654-.712-.3-1.124-1.495.4.498-1.848-1.085.03 1.947-.522 2 7.464c.052.197-.002.274-.187.324a14.55 14.55 0 0 1-1.316.328c.28.298.63.824.785 1.168.904-.242 1.5-.427 1.847-.756.367-.347.413-.732.23-1.415l-2.354-8.786zm11.703-.74l1.532 5.715-2.632.705-2.192-8.184-1.438.385 2.193 8.184-2.515.674-1.525-5.69-1.414.378 2.112 7.882 1.414-.38-.205-.765 6.584-1.764.195.73 1.438-.386-2.11-7.87-1.438.385zm6.584 6.212c.307-.803.125-1.947-.098-3.055l-.802.066c.227 1.032.344 2.07.09 2.796l.81.193zm.053-2.958c.264.662.535 1.533.655 2.122l.616-.252c-.117-.577-.414-1.454-.7-2.098l-.572.228zm.778-.296c.335.556.705 1.29.862 1.782l.583-.28a9.588 9.588 0 0 0-.894-1.761l-.55.26zm-1.116-2.3l.742-.2.192.72-.742.2-.192-.72zm-.178-3.63l.18.673-.74.2-.18-.673.742-.2zm.643 2.4l-.742.2-.183-.684.742-.2.183.684zm1.582 1.452l-.193-.72 1.23-.33-.276-1.032-1.23.33-.183-.684 1.228-.33-.28-1.044-1.23.33-.18-.673 1.414-.38-.298-1.112-4.428 1.186 1.696 6.33 3.43-.92.26 1.248a8.754 8.754 0 0 0-.646-.833l-.507.334c.36.413.756.965.937 1.364l.322-.235c.098.644.1.964.048 1.105-.05.138-.137.186-.276.223l-.74.16c.24.246.465.67.578 1 .42-.1.803-.203 1.034-.314a1.01 1.01 0 0 0 .587-.592c.185-.422.03-1.56-.6-4.374l-.1-.47-1.6.43zm4.596-5.518l.705 2.63-2.18.584-.705-2.63 2.18-.584zm2.293 3.548l-1.382-5.158-4.695 1.258 1.193 4.45c.45 1.68.947 3.858.356 5.594.335.047 1.008.24 1.284.39.578-1.646.235-3.852-.2-5.612l.545-.146c1.016 2.262 2.188 3.948 3.93 4.612a4.779 4.779 0 0 1 .595-1.352c-1.414-.454-2.482-1.844-3.31-3.586l1.68-.45zM132.94 344.9h-2.36v1.2h2.36v2.42l-2.7.9.53 1.22 2.18-.92v2.05h1.25v-9.07h-1.25v2.2zm4.16 5.6c-.36 0-.42-.07-.42-.63v-2.92l2.9-1.7-.86-1.07a19.88 19.88 0 0 1-2.05 1.52v-3h-1.23v7.15c0 1.4.33 1.82 1.47 1.82h1.34c1.12 0 1.4-.73 1.53-2.64-.33-.08-.85-.3-1.14-.54-.07 1.6-.13 2-.5 2h-1.04zm6.23-.87v-4.9h5.3v4.9h-5.3zm-1.25-6.12v8.16h1.25v-.8h5.3v.8h1.3v-8.14h-7.86z"/></g></svg>