<svg xmlns="http://www.w3.org/2000/svg" xmlns:xlink="http://www.w3.org/1999/xlink" width="599" height="193" fill="none"><style><![CDATA[.B{fill:#b7791f}.C{fill:#d69e2e}.D{stroke-linejoin:round}]]></style><g stroke="#1a202c"><path fill-rule="evenodd" d="M1 1h597v191H1V1zm24.66 19.804v153h545.736L572.043 21 25.66 20.804z" fill="#744210" class="D"/><path d="M51 22v151h-9V22z" class="B"/><g class="D"><path d="M37 93l-10 9h39l-10-9H37z" class="C"/><path d="M37 112l-10-9h39l-10 9H37z" class="B"/><path d="M37 113l-10 9h39l-10-9H37z" class="C"/><path d="M37 132l-10-9h39l-10 9H37z" class="B"/><path d="M37 133l-10 9h39l-10-9H37z" class="C"/><path d="M37 152l-10-9h39l-10 9H37z" class="B"/><path d="M37 153l-10 9h39l-10-9H37z" class="C"/><path d="M37 172l-10-9h39l-10 9H37z" class="B"/><path d="M37 23l-10 9h39l-10-9H37z" class="C"/><path d="M37 42l-10-9h39l-10 9H37z" class="B"/></g><path d="M93 22v151h-9V22z" class="B"/><g class="D"><path d="M79 93l-10 9h39l-10-9H79z" class="C"/><path d="M79 112l-10-9h39l-10 9H79z" class="B"/><path d="M79 113l-10 9h39l-10-9H79z" class="C"/><path d="M79 132l-10-9h39l-10 9H79z" class="B"/><path d="M79 133l-10 9h39l-10-9H79z" class="C"/><path d="M79 152l-10-9h39l-10 9H79z" class="B"/><path d="M79 153l-10 9h39l-10-9H79z" class="C"/><path d="M79 172l-10-9h39l-10 9H79z" class="B"/><path d="M79 23l-10 9h39l-10-9H79z" class="C"/><path d="M79 42l-10-9h39l-10 9H79z" class="B"/></g><path d="M135 22v151h-9V22z" class="B"/><g class="D"><use xlink:href="#B" class="C"/><use xlink:href="#C" class="B"/><use xlink:href="#B" y="20" class="C"/><use xlink:href="#C" y="20" class="B"/><use xlink:href="#B" y="40" class="C"/><use xlink:href="#C" y="40" class="B"/><use xlink:href="#B" y="60" class="C"/><use xlink:href="#C" y="60" class="B"/><use xlink:href="#B" y="-70" class="C"/><use xlink:href="#C" y="-70" class="B"/></g><path d="M177 22v151h-9V22z" class="B"/><g class="D"><use xlink:href="#B" x="42" class="C"/><use xlink:href="#C" x="42" class="B"/><use xlink:href="#B" x="42" y="20" class="C"/><use xlink:href="#C" x="42" y="20" class="B"/><use xlink:href="#B" x="42" y="40" class="C"/><use xlink:href="#C" x="42" y="40" class="B"/><use xlink:href="#B" x="42" y="60" class="C"/><use xlink:href="#C" x="42" y="60" class="B"/><use xlink:href="#B" x="42" y="-70" class="C"/><use xlink:href="#C" x="42" y="-70" class="B"/></g><path d="M219 22v151h-9V22z" class="B"/><g class="D"><use xlink:href="#B" x="84" class="C"/><use xlink:href="#C" x="84" class="B"/><use xlink:href="#B" x="84" y="20" class="C"/><use xlink:href="#C" x="84" y="20" class="B"/><use xlink:href="#B" x="84" y="40" class="C"/><use xlink:href="#C" x="84" y="40" class="B"/><use xlink:href="#B" x="84" y="60" class="C"/><use xlink:href="#C" x="84" y="60" class="B"/><use xlink:href="#B" x="84" y="-70" class="C"/><use xlink:href="#C" x="84" y="-70" class="B"/></g><path d="M261 22v151h-9V22z" class="B"/><g class="D"><use xlink:href="#B" x="126" class="C"/><use xlink:href="#C" x="126" class="B"/><use xlink:href="#B" x="126" y="20" class="C"/><use xlink:href="#C" x="126" y="20" class="B"/><use xlink:href="#B" x="126" y="40" class="C"/><use xlink:href="#C" x="126" y="40" class="B"/><use xlink:href="#B" x="126" y="60" class="C"/><use xlink:href="#C" x="126" y="60" class="B"/><use xlink:href="#B" x="126" y="-70" class="C"/><use xlink:href="#C" x="126" y="-70" class="B"/></g><path d="M303 22v151h-9V22z" class="B"/><g class="D"><use xlink:href="#B" x="168" class="C"/><use xlink:href="#C" x="168" class="B"/><use xlink:href="#B" x="168" y="20" class="C"/><use xlink:href="#C" x="168" y="20" class="B"/><use xlink:href="#B" x="168" y="40" class="C"/><use xlink:href="#C" x="168" y="40" class="B"/><use xlink:href="#B" x="168" y="60" class="C"/><use xlink:href="#C" x="168" y="60" class="B"/><use xlink:href="#B" x="168" y="-70" class="C"/><use xlink:href="#C" x="168" y="-70" class="B"/></g><path d="M345 22v151h-9V22z" class="B"/><g class="D"><use xlink:href="#B" x="210" class="C"/><use xlink:href="#C" x="210" class="B"/><use xlink:href="#B" x="210" y="20" class="C"/><use xlink:href="#C" x="210" y="20" class="B"/><use xlink:href="#B" x="210" y="40" class="C"/><use xlink:href="#C" x="210" y="40" class="B"/><use xlink:href="#B" x="210" y="60" class="C"/><use xlink:href="#C" x="210" y="60" class="B"/><use xlink:href="#B" x="210" y="-70" class="C"/><use xlink:href="#C" x="210" y="-70" class="B"/></g><path d="M387 22v151h-9V22z" class="B"/><g class="D"><use xlink:href="#B" x="252" class="C"/><use xlink:href="#C" x="252" class="B"/><use xlink:href="#B" x="252" y="20" class="C"/><use xlink:href="#C" x="252" y="20" class="B"/><use xlink:href="#B" x="252" y="40" class="C"/><use xlink:href="#C" x="252" y="40" class="B"/><use xlink:href="#B" x="252" y="60" class="C"/><use xlink:href="#C" x="252" y="60" class="B"/><use xlink:href="#B" x="252" y="-70" class="C"/><use xlink:href="#C" x="252" y="-70" class="B"/></g><path d="M429 22v151h-9V22z" class="B"/><g class="D"><use xlink:href="#B" x="294" class="C"/><use xlink:href="#C" x="294" class="B"/><use xlink:href="#B" x="294" y="20" class="C"/><use xlink:href="#C" x="294" y="20" class="B"/><use xlink:href="#B" x="294" y="40" class="C"/><use xlink:href="#C" x="294" y="40" class="B"/><use xlink:href="#B" x="294" y="60" class="C"/><use xlink:href="#C" x="294" y="60" class="B"/><use xlink:href="#B" x="294" y="-70" class="C"/><use xlink:href="#C" x="294" y="-70" class="B"/></g><path d="M471 22v151h-9V22z" class="B"/><g class="D"><use xlink:href="#B" x="336" class="C"/><use xlink:href="#C" x="336" class="B"/><use xlink:href="#B" x="336" y="20" class="C"/><use xlink:href="#C" x="336" y="20" class="B"/><use xlink:href="#B" x="336" y="40" class="C"/><use xlink:href="#C" x="336" y="40" class="B"/><use xlink:href="#B" x="336" y="60" class="C"/><use xlink:href="#C" x="336" y="60" class="B"/><use xlink:href="#B" x="336" y="-70" class="C"/><use xlink:href="#C" x="336" y="-70" class="B"/></g><path d="M513 22v151h-9V22z" class="B"/><g class="D"><use xlink:href="#B" x="378" class="C"/><use xlink:href="#C" x="378" class="B"/><use xlink:href="#B" x="378" y="20" class="C"/><use xlink:href="#C" x="378" y="20" class="B"/><use xlink:href="#B" x="378" y="40" class="C"/><use xlink:href="#C" x="378" y="40" class="B"/><use xlink:href="#B" x="378" y="60" class="C"/><use xlink:href="#C" x="378" y="60" class="B"/><use xlink:href="#B" x="378" y="-70" class="C"/><use xlink:href="#C" x="378" y="-70" class="B"/></g><path d="M555 22v151h-9V22z" class="B"/><g class="D"><use xlink:href="#B" x="420" class="C"/><use xlink:href="#C" x="420" class="B"/><use xlink:href="#B" x="420" y="20" class="C"/><use xlink:href="#C" x="420" y="20" class="B"/><use xlink:href="#B" x="420" y="40" class="C"/><use xlink:href="#C" x="420" y="40" class="B"/><use xlink:href="#B" x="420" y="60" class="C"/><use xlink:href="#C" x="420" y="60" class="B"/><use xlink:href="#B" x="420" y="-70" class="C"/><use xlink:href="#C" x="420" y="-70" class="B"/><path fill="#fff" d="M26 63h546v9H26z"/></g></g><defs ><path id="B" d="M121 93l-10 9h39l-10-9h-19z"/><path id="C" d="M121 112l-10-9h39l-10 9h-19z"/></defs></svg>