<svg xmlns="http://www.w3.org/2000/svg" xmlns:xlink="http://www.w3.org/1999/xlink" width="375" height="476" fill="none"><style><![CDATA[.B{fill:#b7791f}.C{fill:#d69e2e}.D{stroke-linejoin:round}]]></style><g mask="url(#a)" stroke="#1a202c"><path fill-rule="evenodd" d="M-58.5-32l603.638 348.5-111.5 193.124L-170 161.124-58.5-32zm13.372 34.42l-89.317 154.7L417.36 475.705l89.858-154.125L-45.128 2.42z" fill="#744210" class="D"/><path d="M22.264 42.94l-88.15 152.68-9.1-5.255 88.15-152.678z" class="B"/><g class="D"><path d="M7.524 35.78L-7.84 39.04l39.434 22.767-4.857-14.938L7.524 35.78z" class="C"/><path d="M-3.567 55l-4.858-14.938L31 62.82 15.645 66.08-3.567 55z" class="B"/></g><path d="M64.73 67.46l-88.15 152.678-9.1-5.254L55.63 62.205z" class="B"/><g class="D"><use xlink:href="#B" class="C"/><path d="M-1.964 150.287L-6.82 135.35l39.433 22.767-15.365 3.262-19.21-11.09z" class="B"/><path d="M-2.548 151.298l-15.365 3.262 39.434 22.767-4.858-14.938-19.2-11.09z" class="C"/><path d="M-13.64 170.51l-4.857-14.938 39.434 22.767L5.572 181.6-13.64 170.51z" class="B"/><path d="M-14.223 171.52l-15.365 3.262L9.845 197.55l-4.857-14.937-19.21-11.092z" class="C"/><path d="M-25.315 190.73l-4.857-14.938L9.26 198.56l-15.365 3.263-19.21-11.092z" class="B"/><path d="M-25.9 191.742l-15.365 3.263 39.434 22.767-4.857-14.938-19.212-11.092zm75.9-131.445L34.626 63.56 74.06 86.326 69.203 71.4 50 60.297z" class="C"/><path d="M38.9 79.508L34.042 64.57l39.434 22.767L58.11 90.6 38.9 79.508z" class="B"/></g><path d="M107.198 91.977l-88.15 152.678-9.1-5.254 88.15-152.678z" class="B"/><g class="D"><use xlink:href="#C" class="C"/><use xlink:href="#D" class="B"/><use xlink:href="#E" class="C"/><path d="M28.827 195.027L23.97 180.1l39.434 22.767-15.365 3.262-19.212-11.092z" class="B"/><path d="M28.244 196.038L12.88 199.3l39.433 22.767-4.857-14.938-19.21-11.092z" class="C"/><use xlink:href="#F" class="B"/><path d="M16.568 216.26l-15.365 3.262L40.637 242.3l-4.857-14.938-19.212-11.09z" class="C"/><path d="M5.477 235.472L.62 220.534 40.053 243.3l-15.365 3.263-19.21-11.092z" class="B"/><use xlink:href="#B" x="83.331" y="-46.26" class="C"/><path d="M81.367 104.026L76.51 89.09l39.434 22.767-15.365 3.262-19.21-11.092z" class="B"/></g><use xlink:href="#G" class="B"/><g class="D"><use xlink:href="#H" class="C"/><use xlink:href="#F" x="65.818" y="-15.927" class="B"/><path d="M82.386 200.334l-15.365 3.263 39.434 22.767-4.858-14.938-19.2-11.092z" class="C"/><use xlink:href="#I" class="B"/><path d="M70.7 220.557l-15.364 3.262 39.433 22.767-4.857-14.938-19.21-11.09z" class="C"/><path d="M59.62 239.768l-4.858-14.938 39.433 22.767-15.365 3.263-19.2-11.092z" class="B"/><path d="M59.035 240.78L43.67 244.04l39.434 22.768-4.857-14.938-19.212-11.092z" class="C"/><path d="M47.944 260l-4.858-14.937L82.52 267.82l-15.365 3.262L47.944 260z" class="B"/><use xlink:href="#C" x="83.331" y="-46.26" class="C"/><use xlink:href="#J" class="B"/></g><use xlink:href="#G" x="42.467" y="24.519" class="B"/><g class="D"><use xlink:href="#B" x="127.401" y="73.555" class="C"/><use xlink:href="#K" class="B"/><path d="M124.853 224.853l-15.365 3.262 39.434 22.767-4.858-14.938-19.21-11.09z" class="C"/><use xlink:href="#L" class="B"/><path d="M113.178 245.075l-15.365 3.262 39.433 22.767-4.857-14.937-19.21-11.092z" class="C"/><use xlink:href="#D" x="61.583" y="89.481" class="B"/><use xlink:href="#B" x="92.375" y="134.222" class="C"/><path d="M90.4 284.51l-4.857-14.938 39.434 22.767-15.365 3.262-19.21-11.09z" class="B"/><use xlink:href="#H" x="83.332" y="-46.26" class="C"/><use xlink:href="#J" x="42.466" y="24.518" class="B"/></g><use xlink:href="#G" x="84.935" y="49.037" class="B"/><g class="D"><use xlink:href="#C" x="127.401" y="73.556" class="C"/><use xlink:href="#D" x="127.401" y="73.555" class="B"/><path d="M167.32 249.37l-15.365 3.262L191.39 275.4l-4.858-14.937-19.21-11.092z" class="C"/><use xlink:href="#M" class="B"/><path d="M155.645 269.593l-15.365 3.263 39.433 22.767-4.857-14.938-19.21-11.092z" class="C"/><use xlink:href="#F" x="127.401" y="73.554" class="B"/><use xlink:href="#C" x="92.376" y="134.222" class="C"/><use xlink:href="#J" x="9.044" y="180.482" class="B"/><use xlink:href="#B" x="210.733" y="27.295" class="C"/><path d="M208.768 177.58l-4.858-14.937 39.434 22.767-15.365 3.262-19.21-11.092z" class="B"/></g><use xlink:href="#G" x="127.401" y="73.555" class="B"/><g class="D"><use xlink:href="#H" x="127.402" y="73.555" class="C"/><path d="M210.37 272.878l-4.858-14.938 39.434 22.768-15.365 3.262-19.21-11.092z" class="B"/><use xlink:href="#N" class="C"/><use xlink:href="#I" x="127.401" y="73.554" class="B"/><use xlink:href="#O" class="C"/><use xlink:href="#K" x="61.583" y="89.481" class="B"/><use xlink:href="#H" x="92.376" y="134.222" class="C"/><use xlink:href="#J" x="51.511" y="205" class="B"/><use xlink:href="#C" x="210.732" y="27.296" class="C"/><use xlink:href="#P" class="B"/></g><use xlink:href="#G" x="169.868" y="98.075" class="B"/><g class="D"><use xlink:href="#B" x="254.803" y="147.11" class="C"/><use xlink:href="#P" x="1.603" y="95.297" class="B"/><use xlink:href="#O" x="54.142" y="4.296" class="C"/><use xlink:href="#L" x="127.402" y="73.556" class="B"/><path d="M240.58 318.63l-15.366 3.262 39.434 22.767-4.857-14.937-19.21-11.092z" class="C"/><use xlink:href="#D" x="188.984" y="163.035" class="B"/><use xlink:href="#N" x="19.116" y="64.962" class="C"/><use xlink:href="#P" x="-33.423" y="155.964" class="B"/><use xlink:href="#E" x="264.873" y="31.591" class="C"/><use xlink:href="#J" x="169.868" y="98.073" class="B"/></g><use xlink:href="#G" x="212.335" y="122.592" class="B"/><g class="D"><use xlink:href="#C" x="254.802" y="147.11" class="C"/><use xlink:href="#P" x="44.07" y="119.815" class="B"/><use xlink:href="#O" x="96.608" y="28.814" class="C"/><use xlink:href="#L" x="169.87" y="98.073" class="B"/><path d="M283.046 343.148l-15.366 3.263 39.434 22.767-4.857-14.938-19.21-11.092z" class="C"/><use xlink:href="#F" x="254.802" y="147.11" class="B"/><path d="M271.37 363.37l-15.365 3.262L295.44 389.4l-4.858-14.938-19.21-11.09z" class="C"/><use xlink:href="#I" x="188.984" y="163.036" class="B"/><use xlink:href="#B" x="338.133" y="100.85" class="C"/><path d="M336.17 251.136L331.31 236.2l39.434 22.767-15.365 3.262-19.21-11.092z" class="B"/></g><use xlink:href="#G" x="254.802" y="147.11" class="B"/><g class="D"><use xlink:href="#C" x="297.269" y="171.628" class="C"/><use xlink:href="#J" x="213.938" y="217.888" class="B"/><use xlink:href="#N" x="127.401" y="73.554" class="C"/><use xlink:href="#M" x="169.868" y="98.073" class="B"/><path d="M325.513 367.667l-15.366 3.262 39.434 22.767-4.857-14.938-19.21-11.09z" class="C"/><use xlink:href="#K" x="188.983" y="163.036" class="B"/><use xlink:href="#E" x="273.917" y="212.074" class="C"/><use xlink:href="#L" x="188.985" y="163.036" class="B"/><use xlink:href="#C" x="338.133" y="100.85" class="C"/><use xlink:href="#P" x="127.401" y="73.555" class="B"/></g><use xlink:href="#G" x="297.269" y="171.629" class="B"/><g class="D"><path d="M380.24 370.95l-4.858-14.937 39.434 22.767-15.365 3.262-19.21-11.092z" class="B"/><path d="M379.655 371.962l-15.365 3.263 39.433 22.767-4.857-14.938-19.21-11.092z" class="C"/><use xlink:href="#I" x="297.269" y="171.628" class="B"/><use xlink:href="#H" x="273.92" y="212.073" class="C"/><use xlink:href="#D" x="316.385" y="236.591" class="B"/><use xlink:href="#N" x="146.517" y="138.517" class="C"/><use xlink:href="#M" x="188.984" y="163.036" class="B"/><path fill="#fff" d="M-69.416 45.284l552.07 318.738-5.254 9.1L-74.67 54.384z"/></g></g><defs ><path id="B" d="M9.127 131.075l-15.365 3.263 39.434 22.767-4.857-14.938-19.212-11.092z"/><path id="C" d="M51.594 155.594l-15.365 3.262 39.434 22.767-4.857-14.938-19.212-11.09z"/><path id="D" d="M40.503 174.805l-4.857-14.938 39.433 22.767-15.365 3.263-19.21-11.092z"/><path id="E" d="M39.92 175.816l-15.365 3.262 39.434 22.767-4.858-14.937-19.21-11.092z"/><path id="F" d="M17.152 215.25l-4.857-14.937 39.433 22.767-15.365 3.262-19.21-11.092z"/><path id="G" d="M149.665 116.495l-88.15 152.68-9.1-5.254 88.15-152.68z"/><path id="H" d="M94.06 180.112l-15.365 3.262 39.434 22.767-4.857-14.937-19.212-11.092z"/><path id="I" d="M71.294 219.546l-4.857-14.938 39.434 22.767-15.365 3.262-19.212-11.09z"/><path id="J" d="M123.834 128.545l-4.858-14.938 39.434 22.767-15.365 3.263-19.21-11.092z"/><path id="K" d="M125.437 223.842l-4.857-14.938 39.433 22.767-15.365 3.262-19.21-11.09z"/><path id="L" d="M113.76 244.064l-4.857-14.938 39.434 22.767-15.365 3.263-19.212-11.092z"/><path id="M" d="M156.228 268.582l-4.857-14.937 39.434 22.767-15.365 3.262-19.212-11.092z"/><path id="N" d="M209.787 273.89l-15.365 3.263 39.434 22.767-4.858-14.938-19.21-11.092z"/><path id="O" d="M198.112 294.112l-15.365 3.262 39.433 22.767-4.857-14.938-19.21-11.09z"/><path id="P" d="M251.235 202.1l-4.858-14.938 39.434 22.767-15.365 3.262-19.21-11.09z"/></defs></svg>