<?xml version="1.0" standalone="no"?>
<!DOCTYPE svg PUBLIC "-//W3C//DTD SVG 20010904//EN"
 "http://www.w3.org/TR/2001/REC-SVG-20010904/DTD/svg10.dtd">
<svg version="1.0" xmlns="http://www.w3.org/2000/svg"
 width="700.000000pt" height="700.000000pt" viewBox="0 0 700.000000 700.000000"
 preserveAspectRatio="xMidYMid meet">
<metadata>
Created by potrace 1.11, written by Peter Selinger 2001-2013
</metadata>
<g transform="translate(0.000000,700.000000) scale(0.100000,-0.100000)"
fill="#000000" stroke="none">
<path d="M3397 6124 c-1 -1 -35 -5 -75 -8 -40 -3 -85 -12 -100 -20 -23 -12
-170 -131 -278 -224 -17 -15 -50 -43 -74 -62 -24 -19 -62 -51 -85 -70 -23 -19
-63 -53 -90 -75 -27 -22 -53 -44 -59 -50 -6 -5 -34 -28 -61 -50 -28 -22 -55
-44 -61 -50 -6 -5 -30 -26 -54 -45 -39 -31 -294 -243 -410 -340 -25 -21 -130
-109 -235 -195 -242 -200 -271 -224 -309 -256 -17 -15 -105 -88 -196 -163 -91
-75 -174 -145 -185 -154 -39 -33 -200 -167 -220 -183 -269 -222 -383 -317
-398 -330 -10 -9 -52 -43 -92 -75 -41 -33 -81 -73 -89 -90 -38 -76 -40 -330
-4 -399 7 -13 101 -96 208 -185 107 -89 215 -179 240 -200 25 -21 90 -75 145
-120 55 -45 111 -92 125 -104 14 -11 50 -41 80 -65 30 -25 60 -49 65 -55 6 -6
44 -38 85 -71 41 -33 77 -63 80 -66 3 -3 111 -93 240 -200 129 -107 246 -204
260 -215 14 -12 146 -122 295 -245 148 -123 409 -340 580 -482 170 -142 317
-263 325 -270 8 -7 49 -40 90 -75 42 -36 91 -67 115 -74 53 -15 436 -15 490 0
35 10 338 254 820 660 11 9 72 60 135 112 63 52 124 103 135 112 11 9 54 44
95 78 41 35 95 79 120 100 25 21 65 55 90 75 25 21 65 54 90 75 48 40 238 198
735 610 304 252 326 271 375 313 14 12 45 38 70 57 25 19 47 37 50 41 3 4 47
41 99 83 52 42 100 84 107 94 58 84 49 398 -14 449 -9 7 -34 28 -56 47 -23 18
-140 116 -261 216 -121 100 -231 192 -245 203 -14 12 -50 42 -80 67 -30 25
-64 53 -75 62 -11 9 -67 56 -125 104 -58 48 -125 104 -150 125 -25 21 -103 86
-175 145 -71 58 -144 118 -160 133 -17 14 -53 44 -80 67 -71 58 -408 337 -421
349 -6 5 -109 91 -229 190 -120 99 -347 287 -504 418 -157 131 -297 245 -311
252 -14 7 -62 17 -105 21 -77 7 -273 12 -278 8z"/>
</g>
</svg>
