<svg width="24" height="24" fill="none" xmlns="http://www.w3.org/2000/svg"><path fill="#90CDF4" d="M6 3h12v18H6z"/><path d="M11 17h2v4h-2v-4z" fill="#2C5282"/><path d="M11 17h2v4h-2v-4z" fill="#2C5282"/><path d="M11 17h2v4h-2v-4z" fill="#2C5282"/><path d="M11 17h2v4h-2v-4z" fill="#2C5282"/><path d="M11 17h2v4h-2v-4zM11 13h2v2h-2v-2z" fill="#2C5282"/><path d="M11 13h2v2h-2v-2z" fill="#2C5282"/><path d="M11 13h2v2h-2v-2z" fill="#2C5282"/><path d="M11 13h2v2h-2v-2z" fill="#2C5282"/><path d="M11 13h2v2h-2v-2zM15 13h2v2h-2v-2z" fill="#2C5282"/><path d="M15 13h2v2h-2v-2z" fill="#2C5282"/><path d="M15 13h2v2h-2v-2z" fill="#2C5282"/><path d="M15 13h2v2h-2v-2z" fill="#2C5282"/><path d="M15 13h2v2h-2v-2zM7 13h2v2H7v-2z" fill="#2C5282"/><path d="M7 13h2v2H7v-2z" fill="#2C5282"/><path d="M7 13h2v2H7v-2z" fill="#2C5282"/><path d="M7 13h2v2H7v-2z" fill="#2C5282"/><path d="M7 13h2v2H7v-2zM7 9h2v2H7V9z" fill="#2C5282"/><path d="M7 9h2v2H7V9z" fill="#2C5282"/><path d="M7 9h2v2H7V9z" fill="#2C5282"/><path d="M7 9h2v2H7V9z" fill="#2C5282"/><path d="M7 9h2v2H7V9zM11 9h2v2h-2V9z" fill="#2C5282"/><path d="M11 9h2v2h-2V9z" fill="#2C5282"/><path d="M11 9h2v2h-2V9z" fill="#2C5282"/><path d="M11 9h2v2h-2V9z" fill="#2C5282"/><path d="M11 9h2v2h-2V9zM15 9h2v2h-2V9z" fill="#2C5282"/><path d="M15 9h2v2h-2V9z" fill="#2C5282"/><path d="M15 9h2v2h-2V9z" fill="#2C5282"/><path d="M15 9h2v2h-2V9z" fill="#2C5282"/><path d="M15 9h2v2h-2V9zM7 5h2v2H7V5z" fill="#2C5282"/><path d="M7 5h2v2H7V5z" fill="#2C5282"/><path d="M7 5h2v2H7V5z" fill="#2C5282"/><path d="M7 5h2v2H7V5z" fill="#2C5282"/><path d="M7 5h2v2H7V5zM11 5h2v2h-2V5z" fill="#2C5282"/><path d="M11 5h2v2h-2V5z" fill="#2C5282"/><path d="M11 5h2v2h-2V5z" fill="#2C5282"/><path d="M11 5h2v2h-2V5z" fill="#2C5282"/><path d="M11 5h2v2h-2V5zM15 5h2v2h-2V5z" fill="#2C5282"/><path d="M15 5h2v2h-2V5z" fill="#2C5282"/><path d="M15 5h2v2h-2V5z" fill="#2C5282"/><path d="M15 5h2v2h-2V5z" fill="#2C5282"/><path d="M15 5h2v2h-2V5z" fill="#2C5282"/></svg>